<svg width="227" height="52" viewBox="0 0 227 52" fill="none" xmlns="http://www.w3.org/2000/svg">
<path d="M0 0.57143H5.14286V5.71428H0V0.57143ZM5.14286 0.57143H10.2857V5.71428H5.14286V0.57143ZM10.2857 0.57143H15.4286V5.71428H10.2857V0.57143ZM15.4286 0.57143H20.5714V5.71428H15.4286V0.57143ZM20.5714 0.57143H25.7143V5.71428H20.5714V0.57143ZM25.7143 0.57143H30.8571V5.71428H25.7143V0.57143ZM25.7143 5.71428H30.8571V10.8571H25.7143V5.71428ZM20.5714 5.71428H25.7143V10.8571H20.5714V5.71428ZM15.4286 5.71428H20.5714V10.8571H15.4286V5.71428ZM10.2857 5.71428H15.4286V10.8571H10.2857V5.71428ZM5.14286 5.71428H10.2857V10.8571H5.14286V5.71428ZM0 5.71428H5.14286V10.8571H0V5.71428ZM10.2857 10.8571H15.4286V16H10.2857V10.8571ZM10.2857 16H15.4286V21.1429H10.2857V16ZM10.2857 21.1429H15.4286V26.2857H10.2857V21.1429ZM10.2857 26.2857H15.4286V31.4286H10.2857V26.2857ZM10.2857 31.4286H15.4286V36.5714H10.2857V31.4286ZM10.2857 36.5714H15.4286V41.7143H10.2857V36.5714ZM15.4286 31.4286H20.5714V36.5714H15.4286V31.4286ZM15.4286 26.2857H20.5714V31.4286H15.4286V26.2857ZM15.4286 21.1429H20.5714V26.2857H15.4286V21.1429ZM15.4286 16H20.5714V21.1429H15.4286V16ZM15.4286 10.8571H20.5714V16H15.4286V10.8571ZM15.4286 36.5714H20.5714V41.7143H15.4286V36.5714ZM15.4286 41.7143H20.5714V46.8571H15.4286V41.7143ZM15.4286 46.8571H20.5714V52H15.4286V46.8571ZM10.2857 46.8571H15.4286V52H10.2857V46.8571ZM10.2857 41.7143H15.4286V46.8571H10.2857V41.7143ZM46.2857 5.71428H51.4286V10.8571H46.2857V5.71428ZM51.4286 5.71428H56.5714V10.8571H51.4286V5.71428ZM51.4286 0.57143H56.5714V5.71428H51.4286V0.57143ZM56.5714 5.71428H61.7143V10.8571H56.5714V5.71428ZM56.5714 10.8571H61.7143V16H56.5714V10.8571ZM61.7143 10.8571H66.8571V16H61.7143V10.8571ZM51.4286 10.8571H56.5714V16H51.4286V10.8571ZM46.2857 10.8571H51.4286V16H46.2857V10.8571ZM41.1429 10.8571H46.2857V16H41.1429V10.8571ZM41.1429 16H46.2857V21.1429H41.1429V16ZM36 16H41.1429V21.1429H36V16ZM46.2857 16H51.4286V21.1429H46.2857V16ZM41.1429 21.1429H46.2857V26.2857H41.1429V21.1429ZM41.1429 26.2857H46.2857V31.4286H41.1429V26.2857ZM41.1429 31.4286H46.2857V36.5714H41.1429V31.4286ZM46.2857 31.4286H51.4286V36.5714H46.2857V31.4286ZM51.4286 31.4286H56.5714V36.5714H51.4286V31.4286ZM56.5714 31.4286H61.7143V36.5714H56.5714V31.4286ZM61.7143 31.4286H66.8571V36.5714H61.7143V31.4286ZM66.8571 31.4286H72V36.5714H66.8571V31.4286ZM66.8571 26.2857H72V31.4286H66.8571V26.2857ZM66.8571 21.1429H72V26.2857H66.8571V21.1429ZM66.8571 16H72V21.1429H66.8571V16ZM61.7143 16H66.8571V21.1429H61.7143V16ZM56.5714 16H61.7143V21.1429H56.5714V16ZM61.7143 21.1429H66.8571V26.2857H61.7143V21.1429ZM61.7143 26.2857H66.8571V31.4286H61.7143V26.2857ZM61.7143 36.5714H66.8571V41.7143H61.7143V36.5714ZM66.8571 36.5714H72V41.7143H66.8571V36.5714ZM66.8571 41.7143H72V46.8571H66.8571V41.7143ZM66.8571 46.8571H72V52H66.8571V46.8571ZM61.7143 46.8571H66.8571V52H61.7143V46.8571ZM61.7143 41.7143H66.8571V46.8571H61.7143V41.7143ZM56.5714 36.5714H61.7143V41.7143H56.5714V36.5714ZM51.4286 36.5714H56.5714V41.7143H51.4286V36.5714ZM46.2857 36.5714H51.4286V41.7143H46.2857V36.5714ZM41.1429 36.5714H46.2857V41.7143H41.1429V36.5714ZM41.1429 41.7143H46.2857V46.8571H41.1429V41.7143ZM41.1429 46.8571H46.2857V52H41.1429V46.8571ZM36 46.8571H41.1429V52H36V46.8571ZM36 41.7143H41.1429V46.8571H36V41.7143ZM36 36.5714H41.1429V41.7143H36V36.5714ZM36 31.4286H41.1429V36.5714H36V31.4286ZM36 26.2857H41.1429V31.4286H36V26.2857ZM36 21.1429H41.1429V26.2857H36V21.1429ZM77.1562 0.57143H82.2991V5.71428H77.1562V0.57143ZM82.2991 0.57143H87.442V5.71428H82.2991V0.57143ZM82.2991 5.71428H87.442V10.8571H82.2991V5.71428ZM82.2991 10.8571H87.442V16H82.2991V10.8571ZM82.2991 16H87.442V21.1429H82.2991V16ZM77.1562 16H82.2991V21.1429H77.1562V16ZM77.1562 10.8571H82.2991V16H77.1562V10.8571ZM77.1562 5.71428H82.2991V10.8571H77.1562V5.71428ZM77.1562 21.1429H82.2991V26.2857H77.1562V21.1429ZM77.1562 26.2857H82.2991V31.4286H77.1562V26.2857ZM77.1562 31.4286H82.2991V36.5714H77.1562V31.4286ZM82.2991 26.2857H87.442V31.4286H82.2991V26.2857ZM82.2991 21.1429H87.442V26.2857H82.2991V21.1429ZM82.2991 31.4286H87.442V36.5714H82.2991V31.4286ZM82.2991 36.5714H87.442V41.7143H82.2991V36.5714ZM77.1562 41.7143H82.2991V46.8571H77.1562V41.7143ZM77.1562 36.5714H82.2991V41.7143H77.1562V36.5714ZM77.1562 46.8571H82.2991V52H77.1562V46.8571ZM82.2991 46.8571H87.442V52H82.2991V46.8571ZM82.2991 41.7143H87.442V46.8571H82.2991V41.7143ZM87.442 46.8571H92.5848V52H87.442V46.8571ZM92.5848 46.8571H97.7277V52H92.5848V46.8571ZM97.7277 46.8571H102.871V52H97.7277V46.8571ZM97.7277 41.7143H102.871V46.8571H97.7277V41.7143ZM92.5848 41.7143H97.7277V46.8571H92.5848V41.7143ZM87.442 41.7143H92.5848V46.8571H87.442V41.7143ZM108 5.71428H113.143V10.8571H108V5.71428ZM113.143 5.71428H118.286V10.8571H113.143V5.71428ZM113.143 10.8571H118.286V16H113.143V10.8571ZM108 10.8571H113.143V16H108V10.8571ZM113.143 0.57143H118.286V5.71428H113.143V0.57143ZM118.286 5.71428H123.429V10.8571H118.286V5.71428ZM123.429 5.71428H128.571V10.8571H123.429V5.71428ZM128.571 5.71428H133.714V10.8571H128.571V5.71428ZM133.714 5.71428H138.857V10.8571H133.714V5.71428ZM133.714 0.57143H138.857V5.71428H133.714V0.57143ZM128.571 0.57143H133.714V5.71428H128.571V0.57143ZM123.429 0.57143H128.571V5.71428H123.429V0.57143ZM118.286 0.57143H123.429V5.71428H118.286V0.57143ZM138.857 5.71428H144V10.8571H138.857V5.71428ZM138.857 10.8571H144V16H138.857V10.8571ZM138.857 16H144V21.1429H138.857V16ZM133.714 16H138.857V21.1429H133.714V16ZM133.714 10.8571H138.857V16H133.714V10.8571ZM133.714 21.1429H138.857V26.2857H133.714V21.1429ZM128.571 21.1429H133.714V26.2857H128.571V21.1429ZM123.429 21.1429H128.571V26.2857H123.429V21.1429ZM118.286 21.1429H123.429V26.2857H118.286V21.1429ZM118.286 26.2857H123.429V31.4286H118.286V26.2857ZM123.429 26.2857H128.571V31.4286H123.429V26.2857ZM128.571 26.2857H133.714V31.4286H128.571V26.2857ZM133.714 26.2857H138.857V31.4286H133.714V26.2857ZM133.714 31.4286H138.857V36.5714H133.714V31.4286ZM133.714 36.5714H138.857V41.7143H133.714V36.5714ZM138.857 36.5714H144V41.7143H138.857V36.5714ZM138.857 31.4286H144V36.5714H138.857V31.4286ZM138.857 41.7143H144V46.8571H138.857V41.7143ZM133.714 41.7143H138.857V46.8571H133.714V41.7143ZM133.714 46.8571H138.857V52H133.714V46.8571ZM128.571 41.7143H133.714V46.8571H128.571V41.7143ZM123.429 41.7143H128.571V46.8571H123.429V41.7143ZM118.286 46.8571H123.429V52H118.286V46.8571ZM113.143 46.8571H118.286V52H113.143V46.8571ZM113.143 41.7143H118.286V46.8571H113.143V41.7143ZM118.286 41.7143H123.429V46.8571H118.286V41.7143ZM123.429 46.8571H128.571V52H123.429V46.8571ZM128.571 46.8571H133.714V52H128.571V46.8571ZM113.143 36.5714H118.286V41.7143H113.143V36.5714ZM108 36.5714H113.143V41.7143H108V36.5714ZM108 41.7143H113.143V46.8571H108V41.7143ZM164.585 26.2857H169.728V31.4286H164.585V26.2857ZM164.585 21.1429H169.728V26.2857H164.585V21.1429ZM169.728 21.1429H174.871V26.2857H169.728V21.1429ZM169.728 26.2857H174.871V31.4286H169.728V26.2857ZM169.728 31.4286H174.871V36.5714H169.728V31.4286ZM164.585 31.4286H169.728V36.5714H164.585V31.4286ZM164.585 10.8571H169.728V16H164.585V10.8571ZM164.585 16H169.728V21.1429H164.585V16ZM159.442 21.1429H164.585V26.2857H159.442V21.1429ZM159.442 16H164.585V21.1429H159.442V16ZM159.442 10.8571H164.585V16H159.442V10.8571ZM149.156 0.57143H154.299V5.71428H149.156V0.57143ZM154.299 0.57143H159.442V5.71428H154.299V0.57143ZM159.442 0.57143H164.585V5.71428H159.442V0.57143ZM159.442 5.71428H164.585V10.8571H159.442V5.71428ZM154.299 5.71428H159.442V10.8571H154.299V5.71428ZM149.156 5.71428H154.299V10.8571H149.156V5.71428ZM149.156 10.8571H154.299V16H149.156V10.8571ZM154.299 10.8571H159.442V16H154.299V10.8571ZM154.299 16H159.442V21.1429H154.299V16ZM154.299 21.1429H159.442V26.2857H154.299V21.1429ZM149.156 21.1429H154.299V26.2857H149.156V21.1429ZM149.156 16H154.299V21.1429H149.156V16ZM149.156 26.2857H154.299V31.4286H149.156V26.2857ZM154.299 26.2857H159.442V31.4286H154.299V26.2857ZM154.299 31.4286H159.442V36.5714H154.299V31.4286ZM154.299 36.5714H159.442V41.7143H154.299V36.5714ZM154.299 41.7143H159.442V46.8571H154.299V41.7143ZM154.299 46.8571H159.442V52H154.299V46.8571ZM149.156 46.8571H154.299V52H149.156V46.8571ZM149.156 41.7143H154.299V46.8571H149.156V41.7143ZM149.156 36.5714H154.299V41.7143H149.156V36.5714ZM149.156 31.4286H154.299V36.5714H149.156V31.4286ZM169.728 36.5714H174.871V41.7143H169.728V36.5714ZM169.728 41.7143H174.871V46.8571H169.728V41.7143ZM174.871 36.5714H180.013V41.7143H174.871V36.5714ZM174.871 31.4286H180.013V36.5714H174.871V31.4286ZM174.871 41.7143H180.013V46.8571H174.871V41.7143ZM174.871 46.8571H180.013V52H174.871V46.8571ZM180.013 46.8571H185.156V52H180.013V46.8571ZM185.156 46.8571H190.299V52H185.156V46.8571ZM185.156 41.7143H190.299V46.8571H185.156V41.7143ZM185.156 36.5714H190.299V41.7143H185.156V36.5714ZM180.013 36.5714H185.156V41.7143H180.013V36.5714ZM180.013 41.7143H185.156V46.8571H180.013V41.7143ZM180.013 31.4286H185.156V36.5714H180.013V31.4286ZM185.156 26.2857H190.299V31.4286H185.156V26.2857ZM185.156 21.1429H190.299V26.2857H185.156V21.1429ZM185.156 31.4286H190.299V36.5714H185.156V31.4286ZM180.013 26.2857H185.156V31.4286H180.013V26.2857ZM180.013 21.1429H185.156V26.2857H180.013V21.1429ZM180.013 16H185.156V21.1429H180.013V16ZM185.156 16H190.299V21.1429H185.156V16ZM185.156 10.8571H190.299V16H185.156V10.8571ZM180.013 0.57143H185.156V5.71428H180.013V0.57143ZM185.156 0.57143H190.299V5.71428H185.156V0.57143ZM185.156 5.71428H190.299V10.8571H185.156V5.71428ZM180.013 5.71428H185.156V10.8571H180.013V5.71428ZM180.013 10.8571H185.156V16H180.013V10.8571ZM195.469 0.57143H200.612V5.71428H195.469V0.57143ZM200.612 0.57143H205.754V5.71428H200.612V0.57143ZM205.754 0.57143H210.897V5.71428H205.754V0.57143ZM210.897 0.57143H216.04V5.71428H210.897V0.57143ZM216.04 0.57143H221.183V5.71428H216.04V0.57143ZM221.183 0.57143H226.326V5.71428H221.183V0.57143ZM221.183 5.71428H226.326V10.8571H221.183V5.71428ZM216.04 5.71428H221.183V10.8571H216.04V5.71428ZM210.897 5.71428H216.04V10.8571H210.897V5.71428ZM205.754 5.71428H210.897V10.8571H205.754V5.71428ZM200.612 5.71428H205.754V10.8571H200.612V5.71428ZM195.469 5.71428H200.612V10.8571H195.469V5.71428ZM205.754 10.8571H210.897V16H205.754V10.8571ZM205.754 16H210.897V21.1429H205.754V16ZM205.754 21.1429H210.897V26.2857H205.754V21.1429ZM205.754 26.2857H210.897V31.4286H205.754V26.2857ZM205.754 31.4286H210.897V36.5714H205.754V31.4286ZM205.754 36.5714H210.897V41.7143H205.754V36.5714ZM210.897 31.4286H216.04V36.5714H210.897V31.4286ZM210.897 26.2857H216.04V31.4286H210.897V26.2857ZM210.897 21.1429H216.04V26.2857H210.897V21.1429ZM210.897 16H216.04V21.1429H210.897V16ZM210.897 10.8571H216.04V16H210.897V10.8571ZM210.897 36.5714H216.04V41.7143H210.897V36.5714ZM210.897 41.7143H216.04V46.8571H210.897V41.7143ZM210.897 46.8571H216.04V52H210.897V46.8571ZM205.754 46.8571H210.897V52H205.754V46.8571ZM205.754 41.7143H210.897V46.8571H205.754V41.7143Z" fill="url(#paint0_linear_1_2)"/>
<defs>
<linearGradient id="paint0_linear_1_2" x1="36" y1="-12" x2="101" y2="67" gradientUnits="userSpaceOnUse">
<stop stop-color="#9542D0"/>
<stop offset="1" stop-color="#362679"/>
</linearGradient>
</defs>
</svg>
