<svg id="logomark_light" data-name="logomark light" xmlns="http://www.w3.org/2000/svg" xmlns:xlink="http://www.w3.org/1999/xlink" width="135" height="135" viewBox="0 0 135 135">
  <defs>
    <linearGradient id="linear-gradient" x1="0.12" y1="0.165" x2="0.884" y2="0.767" gradientUnits="objectBoundingBox">
      <stop offset="0" stop-color="#ffd52e"/>
      <stop offset="1" stop-color="#cb0000"/>
    </linearGradient>
  </defs>
  <circle id="Ellipse_20" data-name="Ellipse 20" cx="67.5" cy="67.5" r="67.5" fill="url(#linear-gradient)"/>
  <path id="Path_7446" data-name="Path 7446" d="M50.929,113.165a56.86,56.86,0,0,1-5.633-.86c-1.828-.374-3.657-.844-5.437-1.4-1.76-.547-3.513-1.189-5.212-1.908-1.683-.712-3.351-1.515-4.959-2.389s-3.17-1.823-4.677-2.842-2.97-2.112-4.367-3.266-2.75-2.383-4.029-3.661-2.511-2.634-3.661-4.029S10.7,89.947,9.688,88.447s-1.974-3.081-2.842-4.677S5.17,80.493,4.458,78.81C3.74,77.112,3.1,75.358,2.55,73.6c-.554-1.78-1.024-3.609-1.4-5.437a56.87,56.87,0,0,1-.86-5.633,57.572,57.572,0,0,1,0-11.6,56.865,56.865,0,0,1,.86-5.633c.374-1.828.844-3.657,1.4-5.437C3.1,38.1,3.74,36.346,4.458,34.647c.712-1.683,1.516-3.351,2.389-4.959s1.823-3.17,2.842-4.677,2.112-2.969,3.266-4.367,2.383-2.75,3.661-4.029,2.634-2.511,4.029-3.661,2.867-2.252,4.367-3.266,3.081-1.974,4.677-2.842,3.276-1.677,4.959-2.389c1.7-.718,3.452-1.36,5.212-1.908,1.78-.554,3.609-1.024,5.437-1.4a56.864,56.864,0,0,1,5.633-.86,57.572,57.572,0,0,1,11.6,0,56.87,56.87,0,0,1,5.633.86c1.828.374,3.657.844,5.437,1.4,1.76.547,3.513,1.189,5.212,1.908,1.683.712,3.351,1.516,4.959,2.389s3.17,1.823,4.677,2.842,2.969,2.112,4.367,3.266,2.75,2.383,4.029,3.661,2.511,2.634,3.661,4.029,2.252,2.867,3.266,4.367,1.974,3.081,2.842,4.677,1.677,3.276,2.389,4.959c.718,1.7,1.36,3.452,1.908,5.212.554,1.78,1.024,3.609,1.4,5.437a56.87,56.87,0,0,1,.86,5.633,57.571,57.571,0,0,1,0,11.6,56.875,56.875,0,0,1-.86,5.633c-.374,1.828-.844,3.657-1.4,5.437-.547,1.76-1.189,3.514-1.908,5.212-.712,1.683-1.515,3.351-2.389,4.959s-1.823,3.17-2.842,4.677-2.112,2.97-3.266,4.367-2.382,2.75-3.661,4.029-2.634,2.511-4.029,3.661-2.867,2.252-4.367,3.266-3.081,1.974-4.677,2.842S80.493,108.288,78.81,109c-1.7.718-3.452,1.36-5.212,1.908-1.78.554-3.609,1.024-5.437,1.4a56.866,56.866,0,0,1-5.633.86,57.571,57.571,0,0,1-11.6,0Zm5.8-5.85a50.387,50.387,0,0,0,16.461-2.749,2.9,2.9,0,0,1-.467-.965,20.293,20.293,0,0,0-2.1-4.85H55.605a29.04,29.04,0,0,1,4.5-4.5h7.151a40.115,40.115,0,0,0-5.812-5.289,3.133,3.133,0,0,1-.66-.6l.54-.36,2.82-1.86c.6-.42,1.2-.78,1.8-1.26,4.74,3.66,10.44,9.42,12.6,17.1a3.1,3.1,0,0,1,.07.351,50.58,50.58,0,0,0,.022-91.2,2.872,2.872,0,0,1-.092.547c-3,10.98-12.42,17.1-20.64,22.56l-2.82,1.86c-6.48,4.32-15.06,11.22-15.06,20.759a18.394,18.394,0,0,0,2.693,9.31H57.209a31.54,31.54,0,0,1-4.86,4.5H46.012a39.16,39.16,0,0,0,5.592,5.09,3.426,3.426,0,0,1,.48.42c-1.68,1.08-3.42,2.22-5.16,3.54-6.12-4.86-12.9-12.54-12.9-22.86,0-12.419,10.08-20.639,17.7-25.739L54.6,29.2c7.74-5.04,15.72-10.32,18.12-19.08a2.881,2.881,0,0,1,.62-1.178A50.654,50.654,0,0,0,40.237,8.9a2.893,2.893,0,0,1,.479.981,20.376,20.376,0,0,0,2.245,5.05H57.629a27.018,27.018,0,0,1-4.56,4.5H46.378A40.507,40.507,0,0,0,52,24.523a3.135,3.135,0,0,1,.66.6l-.54.36-2.82,1.86c-.6.42-1.2.78-1.8,1.26-4.74-3.66-10.44-9.42-12.6-17.1a3.1,3.1,0,0,1-.072-.368,50.58,50.58,0,0,0-.017,91.179,2.872,2.872,0,0,1,.089-.513c3-10.98,12.42-17.1,20.64-22.56l2.82-1.86c6.48-4.32,15.06-11.22,15.06-20.759a18.321,18.321,0,0,0-2.57-9.11H58.863a30.957,30.957,0,0,1,4.8-4.5h3.953a38.868,38.868,0,0,0-5.781-5.29,3.432,3.432,0,0,1-.48-.42c1.68-1.08,3.42-2.22,5.16-3.54,6.12,4.86,12.9,12.54,12.9,22.86,0,12.419-10.08,20.639-17.7,25.739l-2.88,1.92c-7.74,5.04-15.72,10.32-18.12,19.08a2.881,2.881,0,0,1-.6,1.153A50.374,50.374,0,0,0,56.729,107.315ZM50.5,56.774a6.549,6.549,0,1,1,6.549,6.549A6.549,6.549,0,0,1,50.5,56.774Z" transform="translate(10.806 10.806)" fill="#fff"/>
</svg>
