<svg xmlns="http://www.w3.org/2000/svg" xmlns:xlink="http://www.w3.org/1999/xlink" viewBox="0 0 203.05887 169.6957">
  <defs>
    <style>
      .b83b9ac5-b8fb-4e51-8782-18d44d7525c4 {
        fill: url(#b49bbbd1-ed94-41f8-a712-1bf1d92a19ae);
      }
    </style>
    <linearGradient id="b49bbbd1-ed94-41f8-a712-1bf1d92a19ae" data-name="Unbenannter Verlauf 56" x1="101.52944" x2="101.52944" y2="169.6957" gradientUnits="userSpaceOnUse">
      <stop offset="0" stop-color="#f1841b"/>
      <stop offset="1" stop-color="#eae223"/>
    </linearGradient>
  </defs>
  <g id="ac1465cf-0d16-4a36-95d1-6af373f63e25" data-name="Ebene 2">
    <g id="e43bd763-7f6a-401e-a4d2-612fb29c2aed" data-name="Ebene 2">
      <path id="edbbadfa-799e-44f7-990e-86a90d59d841" data-name="logo_colored" class="b83b9ac5-b8fb-4e51-8782-18d44d7525c4" d="M203.05887,165.17693l-40.04337-.01821L136.2877,99.5935l-59.97042-.12789L87.78047,69.78637l36.15861-.0875c-3.06465-10.83576-7.2-22.01754-15.82419-29.25836a36.1159,36.1159,0,0,0-19.72632-7.9747C75.058,31.18376,61.44373,36.75,52.10829,46.35189S37.64308,69.283,37.12446,82.665c-.64061,16.52963,5.98929,33.58785,18.85744,43.98254s32.00257,13.1051,46.50413,5.14624q6.42618,15.87219,12.85235,31.74437c-22.83434,9.55751-50.0014,7.85329-71.6401-4.16835S6.322,125.349,1.5753,101.05449c-5.96655-30.5377,5.188-64.99,30.53786-83.75331C50.19566,3.917,73.6192-1.696,95.88251.4424c12.65193,1.21524,25.48,4.945,35.11527,13.23413,10.00791,8.60977,15.57037,21.15718,20.82016,33.27023Z"/>
    </g>
  </g>
</svg>
